<svg xmlns="http://www.w3.org/2000/svg" xmlns:xlink="http://www.w3.org/1999/xlink" viewBox="0 0 165.21 44.46"><defs><linearGradient id="a" x1="225.4" y1="1061.35" x2="225.79" y2="1061.35" gradientTransform="matrix(222.29, 0, 0, -74.69, -50033.54, 79303.72)" gradientUnits="userSpaceOnUse"><stop offset="0" stop-color="#02a6dc"></stop><stop offset="0.2" stop-color="#323790"></stop><stop offset="0.4" stop-color="#e71687"></stop><stop offset="0.6" stop-color="#e92f30"></stop><stop offset="0.8" stop-color="#fbe726"></stop><stop offset="1" stop-color="#009d53"></stop></linearGradient></defs><title>ChoiceAnalog</title><g style="isolation:isolate"><path d="M75.28,0a4.71,4.71,0,0,1,2.78.91.86.86,0,0,1,.1.3v.05c0,.29-.18.45-.53.48h0l-.88-.45A4.91,4.91,0,0,0,75.28,1a3.87,3.87,0,0,0-3.1,1.64,4.15,4.15,0,0,0-.66,2.14,3.75,3.75,0,0,0,2,3.33,3.66,3.66,0,0,0,1.74.46h.08a4.24,4.24,0,0,0,2.24-.71h.15c.31.07.46.22.46.45V8.4c0,.35-.57.7-1.69,1a3.68,3.68,0,0,1-1.11.16h-.13a4.75,4.75,0,0,1-4-2.2,5.07,5.07,0,0,1-.76-2.6A4.82,4.82,0,0,1,75.28,0Z" fill="#fff"></path><path d="M80.11,0h.1c.3.06.45.2.45.4V3.52a3.13,3.13,0,0,1,2.07-.84,3.06,3.06,0,0,1,2.69,1.59,2.88,2.88,0,0,1,.38,1.34V9.13c0,.25-.16.4-.48.46h0c-.24,0-.4-.15-.48-.46V5.75a2,2,0,0,0-1.41-2,2.66,2.66,0,0,0-.68-.1,2,2,0,0,0-2,1.49,3.81,3.81,0,0,0-.1,1.06V9.13c0,.25-.16.4-.48.46h0c-.24,0-.4-.15-.48-.46V.51C79.75.2,79.89,0,80.11,0Z" fill="#fff"></path><path d="M90.35,2.79a3.43,3.43,0,0,1,3.4,3.4,3.36,3.36,0,0,1-1.81,3,3.25,3.25,0,0,1-1.51.4h-.2A3.42,3.42,0,0,1,87.68,8.3,3.63,3.63,0,0,1,87,6.19a3.37,3.37,0,0,1,1.46-2.78A3.47,3.47,0,0,1,90.35,2.79ZM88,6.12v.12a2.31,2.31,0,0,0,1.32,2.1,2.07,2.07,0,0,0,1,.25h.15a2.33,2.33,0,0,0,2.15-1.46,2.48,2.48,0,0,0,.18-.89V6.12a2.31,2.31,0,0,0-1-1.91,2.4,2.4,0,0,0-1.39-.42,2.37,2.37,0,0,0-2.26,1.6A2.58,2.58,0,0,0,88,6.12Z" fill="#fff"></path><path d="M95.69,1c.33.08.49.22.49.43v.15c0,.23-.18.37-.53.42s-.38-.16-.46-.5C95.26,1.17,95.43,1,95.69,1Zm0,1.71c.33.08.49.22.49.43v6c0,.25-.16.4-.49.46h0c-.26,0-.41-.17-.48-.5V3.28C95.23,2.9,95.4,2.71,95.69,2.71Z" fill="#fff"></path><path d="M101,2.74a3.51,3.51,0,0,1,2.41,1,.68.68,0,0,1,.07.26V4q-.09.48-.48.48h0a2.09,2.09,0,0,1-.8-.48,2.53,2.53,0,0,0-1.1-.28H101a2.36,2.36,0,0,0-2.2,1.53,2.82,2.82,0,0,0-.18.93,2.42,2.42,0,0,0,1.53,2.25,2.88,2.88,0,0,0,1,.17,2.62,2.62,0,0,0,1.69-.7l.2,0h.08q.38,0,.45.48v0c0,.34-.54.72-1.6,1.13a5.83,5.83,0,0,1-.8.1h-.2a3.45,3.45,0,0,1-2.57-1.31,3.58,3.58,0,0,1-.73-2.12,3.41,3.41,0,0,1,1.47-2.8A3.46,3.46,0,0,1,101,2.74Z" fill="#fff"></path><path d="M107.93,2.74A3.4,3.4,0,0,1,111,4.62a3.46,3.46,0,0,1,.38,1.6v.12c-.06.34-.22.5-.48.5h-5.26a2.43,2.43,0,0,0,1.26,1.52,3,3,0,0,0,1.08.22,3,3,0,0,0,1.33-.37h.14c.3.06.45.21.45.46v.07c0,.41-.6.69-1.8.85h-.17a3.37,3.37,0,0,1-3-1.73,3.46,3.46,0,0,1-.45-1.7,3.4,3.4,0,0,1,1.78-3A3.7,3.7,0,0,1,107.93,2.74Zm-2.37,3.13h4.79a2.49,2.49,0,0,0-.6-1.33,2.35,2.35,0,0,0-1.62-.77h-.27a2.31,2.31,0,0,0-2,1.17A2.46,2.46,0,0,0,105.56,5.87Z" fill="#fff"></path><path d="M115.8.05c.31,0,.54.31.68.93q3,7.89,3.06,8.08v.07c0,.25-.16.4-.47.46h0c-.29,0-.5-.29-.63-.86L117.28,5.8h-2.93L113,9.43a.57.57,0,0,1-.35.16h-.06c-.31-.06-.47-.22-.47-.48v0L113,6.78Q115.19.95,115.38.31A.62.62,0,0,1,115.8.05Zm0,1.91-1,2.86h2.15v0L115.83,2Z" fill="#fff"></path><path d="M121.06,2.76q.48.12.48.42v.55a3.45,3.45,0,0,1,2.36-1,3.34,3.34,0,0,1,2.5,1.17A3.23,3.23,0,0,1,127.19,6V9.17c0,.21-.16.35-.47.42h0c-.32-.06-.47-.22-.47-.48V6.32a2.38,2.38,0,0,0-1.62-2.47,3.27,3.27,0,0,0-.7-.1h-.07a2.29,2.29,0,0,0-2.1,1.4,3.56,3.56,0,0,0-.19,1.37V9.14q0,.36-.48.45h0c-.26,0-.42-.17-.48-.5V3.33C120.6,3,120.77,2.76,121.06,2.76Z" fill="#fff"></path><path d="M131.73,2.76a3.43,3.43,0,0,1,3.06,1.89,3.76,3.76,0,0,1,.35,1.6V9.14c0,.24-.16.39-.47.45h0a.51.51,0,0,1-.47-.38v0l0-.63v0a3.37,3.37,0,0,1-2.37,1.05h-.19a3.41,3.41,0,0,1-2.9-1.75,3.74,3.74,0,0,1-.42-1.69,3.4,3.4,0,0,1,1.87-3A3.62,3.62,0,0,1,131.73,2.76Zm-2.44,3.36V6.2a2.4,2.4,0,0,0,1.49,2.24,2.66,2.66,0,0,0,.85.17h.19a2.38,2.38,0,0,0,2.05-1.24,2.48,2.48,0,0,0,.3-1.12v-.1A2.39,2.39,0,0,0,132.75,4a2.6,2.6,0,0,0-1-.22h0a2.43,2.43,0,0,0-2.27,1.57A3.26,3.26,0,0,0,129.29,6.12Z" fill="#fff"></path><path d="M136.9.06h.1c.3.06.45.2.45.4V8.6H138c.22,0,.36.17.43.49v0q-.09.48-.48.48h-1c-.26,0-.42-.17-.48-.5V.61C136.51.24,136.65.06,136.9.06Z" fill="#fff"></path><path d="M142.85,2.79a3.4,3.4,0,0,1,1.59,6.4,3.32,3.32,0,0,1-1.52.4h-.2a3.45,3.45,0,0,1-2.55-1.29,3.63,3.63,0,0,1-.72-2.11,3.39,3.39,0,0,1,1.46-2.78A3.48,3.48,0,0,1,142.85,2.79Zm-2.41,3.33v.12a2.31,2.31,0,0,0,1.32,2.1,2.07,2.07,0,0,0,1,.25h.15a2.35,2.35,0,0,0,2.16-1.46,2.69,2.69,0,0,0,.17-.89V6.12a2.31,2.31,0,0,0-1-1.91,2.4,2.4,0,0,0-1.39-.42,2.37,2.37,0,0,0-2.26,1.6A2.58,2.58,0,0,0,140.44,6.12Z" fill="#fff"></path><path d="M150.66,2.77A3.43,3.43,0,0,1,154.06,6l0,.84v3c0,.56-.43,1.17-1.28,1.84a3.79,3.79,0,0,1-2.09.64,3.66,3.66,0,0,1-3.07-1.66,1.25,1.25,0,0,1-.22-.49v-.08c0-.21.14-.36.44-.42h.08c.22,0,.41.2.56.62a2.73,2.73,0,0,0,2.21,1.12A2.58,2.58,0,0,0,153.05,10l0-.32V8.55a3.41,3.41,0,0,1-2.35,1h-.2A3.42,3.42,0,0,1,148,8.28a3.63,3.63,0,0,1-.72-2.11,3.37,3.37,0,0,1,1.46-2.78A3.47,3.47,0,0,1,150.66,2.77ZM148.23,6.1v.12a2.38,2.38,0,0,0,1.59,2.25,2.58,2.58,0,0,0,.77.13h.15A2.4,2.4,0,0,0,153,7a3.25,3.25,0,0,0,.12-.74V6.12a2.4,2.4,0,0,0-1.61-2.26,3.54,3.54,0,0,0-.77-.12h-.09a2.4,2.4,0,0,0-2.24,1.56A2.44,2.44,0,0,0,148.23,6.1Z" fill="#fff"></path></g><g style="isolation:isolate"><path d="M21.21,3.52A22.59,22.59,0,0,1,33.57,7.18,2.83,2.83,0,0,1,34,8.39v.22c0,1.15-.78,1.79-2.35,1.94h-.11L27.62,8.72a24,24,0,0,0-6.41-1.13q-8,0-13.81,6.62a15.79,15.79,0,0,0-2.92,8.64q0,8.47,8.77,13.43A18.08,18.08,0,0,0,21,38.11h.33a20.22,20.22,0,0,0,10-2.85H32c1.35.27,2,.88,2,1.83v.29q0,2.16-7.51,4.18a19.44,19.44,0,0,1-4.94.62H21q-10.54,0-17.64-8.86A18.86,18.86,0,0,1,0,22.85q0-10,10.1-16.37A22.9,22.9,0,0,1,21.21,3.52Z" fill="#fff"></path><path d="M55.13,3.74c1.37,0,2.38,1.24,3,3.74Q71.65,39.3,71.77,40.05v.3c0,1-.71,1.61-2.11,1.83h-.12q-2,0-2.79-3.45l-5-11.82H48.66L42.54,41.56a2.92,2.92,0,0,1-1.58.62h-.24c-1.4-.24-2.1-.87-2.1-1.91v-.11l3.8-9.32Q52.36,7.35,53.23,4.76A2.82,2.82,0,0,1,55.13,3.74Zm0,7.7L50.44,23H60v-.11L55.25,11.44Z" fill="#fff"></path></g><path d="M78.93,15.44a6.29,6.29,0,0,1,5.35,2.9c2.37,3.18,3.34,7.07,4.52,10.78S91,36.69,93,40.06c.38.62,1.63,2.75,3.11,2.74,1.3,0,2.54-1.81,3-2.62,2-3.18,3-6.94,4.08-10.55.69-2.23,1.58-4.87,2.53-7.13s1.95-4.78,4.3-6.2a6.75,6.75,0,0,1,4.52-.74c3.55.63,5,3.74,5.94,5.8,2.24,4.88,3.26,10.07,5.26,15.09a15.56,15.56,0,0,0,2.89,5.18,2.24,2.24,0,0,0,3.94,0,15.41,15.41,0,0,0,2.89-5.18c2-5.16,3-10.11,5.27-15.05.92-2,2.28-5.13,5.78-5.84a8,8,0,0,1,2.82,0c3.26.72,4.55,3.42,5.56,5.56,2.22,4.72,3.3,9.48,5,14.35.82,2.29,1.76,4.85,3.7,6.55a3.51,3.51,0,0,0,.67.47,6.81,6.81,0,0,1,.82.39,5.88,5.88,0,0,1-.08,1.53,5.7,5.7,0,0,1-2.15-.39c-3-1.08-4.14-3.88-5.11-6-2.17-4.82-3.26-9.77-5.2-14.74a14.56,14.56,0,0,0-2.81-5.06,3.28,3.28,0,0,0-1.93-1.13,3.47,3.47,0,0,0-2,1.21,15.93,15.93,0,0,0-2.82,5.22c-2,5.14-3,10-5.34,15.09-.95,2-2.34,5.22-6,5.76a6.35,6.35,0,0,1-4.82-1.09c-2.05-1.52-3.19-3.94-4.08-6.2C121,32.44,119.94,27.7,118,23a19.78,19.78,0,0,0-1.63-3.3c-.51-.81-1.68-2.58-2.89-2.62a2.82,2.82,0,0,0-2,1.17,15.61,15.61,0,0,0-2.9,5.18c-2,5.1-3,10.08-5.26,15.05-.88,2-2.44,5.13-5.79,5.84a8.43,8.43,0,0,1-2.89,0c-3.23-.71-4.56-3.41-5.56-5.53-2.22-4.69-3.21-9.47-5-14.31-.83-2.28-1.81-4.95-3.79-6.63a3.7,3.7,0,0,0-.66-.47,7.52,7.52,0,0,1-.82-.39V15.56C78.85,15.5,78.85,15.45,78.93,15.44Z" fill="#fff"></path><path d="M127.74,35.56l-.26-.66c1.7-4.73,2.78-9.3,4.83-13.86.92-2.05,2.29-5.13,5.79-5.84a8.26,8.26,0,0,1,2.82,0,6.37,6.37,0,0,1,1.92.76,10.13,10.13,0,0,0-1.45,1.89l0,0a3.19,3.19,0,0,0-1.93-1.14,3.44,3.44,0,0,0-2,1.21,15.85,15.85,0,0,0-2.82,5.22c-2,5.14-3,10-5.34,15.09-.05.11-.1.23-.16.34a24.13,24.13,0,0,1-1.33-2.93ZM94.85,38.13c2.23-5,3.28-10,5.27-15.05A15.86,15.86,0,0,1,103,17.9a2.16,2.16,0,0,1,3.83,0A10.73,10.73,0,0,1,108.3,16a6.24,6.24,0,0,0-2.17-.81,6.77,6.77,0,0,0-4.53.74c-2.35,1.42-3.31,3.82-4.3,6.2s-1.83,4.9-2.52,7.13C94.19,31.19,93.64,33.14,93,35a24.83,24.83,0,0,0,1.69,3.57C94.71,38.44,94.79,38.28,94.85,38.13Zm-7.19,4.32c-1.49,0-2.74-2.13-3.12-2.75-2.07-3.37-3.08-7.33-4.22-10.94S78.17,21.16,75.79,18a6.31,6.31,0,0,0-5.34-2.9c-.09,0-.08.06-.07.12v1.41a7.41,7.41,0,0,0,.81.39,3.79,3.79,0,0,1,.67.47c2,1.68,3,4.35,3.78,6.63,1.76,4.84,2.76,9.62,5,14.31,1,2.12,2.33,4.82,5.56,5.53a8.47,8.47,0,0,0,2.9,0,6,6,0,0,0,2-.81A10,10,0,0,1,89.6,41.3,3,3,0,0,1,87.66,42.45Zm36.46-1.14a3.47,3.47,0,0,1-2,1.14,3.4,3.4,0,0,1-1.93-1.18,15.62,15.62,0,0,1-2.89-5.17c-2-5-3-10.22-5.27-15.1l-.17-.38a21.48,21.48,0,0,0-1.35,3c-.11.27-.21.55-.32.82,1.52,4.11,2.53,8.25,4.14,12.3.9,2.26,2,4.68,4.08,6.2A6.38,6.38,0,0,0,123.26,44a6,6,0,0,0,2.36-.85A11,11,0,0,1,124.12,41.31ZM145,23.68c-.1.25-.2.5-.29.75,1.6,4.46,2.68,8.9,4.63,13.23,1,2.16,2.1,5,5.12,6a5.62,5.62,0,0,0,2.15.39,5.9,5.9,0,0,0,.07-1.53,7.48,7.48,0,0,0-.81-.39,3.51,3.51,0,0,1-.67-.47c-1.95-1.7-2.89-4.25-3.71-6.55-1.75-4.87-2.83-9.63-5-14.34l-.1-.21a23.93,23.93,0,0,0-1.24,2.79Z" fill="url(#a)"></path></svg>
